<svg width="240" height="240" viewBox="0 0 240 240" fill="none" xmlns="http://www.w3.org/2000/svg">
  <!-- Radiating stress lines in yellow -->
  <g>
    <!-- Top left rays -->
    <path d="M90 100 L60 70 C55 65 50 60 45 55" stroke="#FFB800" stroke-width="3" stroke-linecap="round" />
    <path d="M80 90 L50 65 C45 60 40 55 35 50" stroke="#FFB800" stroke-width="3" stroke-linecap="round" />
    <path d="M70 85 L40 60 C35 55 30 50 25 45" stroke="#FFB800" stroke-width="3" stroke-linecap="round" />
    
    <!-- Top rays -->
    <path d="M100 80 L100 50 C100 45 100 40 100 35" stroke="#FFB800" stroke-width="3" stroke-linecap="round" />
    <path d="M110 80 L110 50 C110 45 110 40 110 35" stroke="#FFB800" stroke-width="3" stroke-linecap="round" />
    <path d="M120 80 L120 50 C120 45 120 40 120 35" stroke="#FFB800" stroke-width="3" stroke-linecap="round" />
    <path d="M130 80 L130 50 C130 45 130 40 130 35" stroke="#FFB800" stroke-width="3" stroke-linecap="round" />
    <path d="M140 80 L140 50 C140 45 140 40 140 35" stroke="#FFB800" stroke-width="3" stroke-linecap="round" />
    
    <!-- Top right rays -->
    <path d="M150 90 L180 65 C185 60 190 55 195 50" stroke="#FFB800" stroke-width="3" stroke-linecap="round" />
    <path d="M160 95 L190 70 C195 65 200 60 205 55" stroke="#FFB800" stroke-width="3" stroke-linecap="round" />
    <path d="M170 100 L200 75 C205 70 210 65 215 60" stroke="#FFB800" stroke-width="3" stroke-linecap="round" />
  </g>
  
  <!-- Person outline -->
  <g>
    <!-- Head with hands -->
    <path d="M120 180 L120 140 C120 120 100 110 100 110 C90 100 90 90 100 80 C110 70 130 70 140 80 C150 90 150 100 140 110 C140 110 120 120 120 140 L120 180" stroke="black" stroke-width="3" fill="none" />
    
    <!-- Face -->
    <ellipse cx="120" cy="110" rx="25" ry="30" stroke="black" stroke-width="3" fill="none" />
    
    <!-- Hands on head -->
    <path d="M95 100 C85 95 75 100 70 110 C65 120 70 130 80 135" stroke="black" stroke-width="3" fill="none" />
    <path d="M145 100 C155 95 165 100 170 110 C175 120 170 130 160 135" stroke="black" stroke-width="3" fill="none" />
    
    <!-- Body -->
    <path d="M110 180 L110 200" stroke="black" stroke-width="3" />
    <path d="M130 180 L130 200" stroke="black" stroke-width="3" />
    
    <!-- Facial features -->
    <path d="M110 115 C115 120 125 120 130 115" stroke="black" stroke-width="2" fill="none" />
    <ellipse cx="110" cy="105" rx="2" ry="3" fill="black" />
    <ellipse cx="130" cy="105" rx="2" ry="3" fill="black" />
  </g>
  
  <!-- Black shirt -->
  <path d="M100 180 L100 150 C100 140 110 135 120 135 C130 135 140 140 140 150 L140 180 Z" fill="black" />
</svg>