
<svg xmlns="http://www.w3.org/2000/svg" viewBox="0 0 500 500"><g id="freepik--background-complete--inject-341"><path d="M454,216.18c.66-4.8-6.11-8.74-11.2-9.15-2.42-.2-4.94.17-7.24-.63-5-1.73-7-8.17-11.83-10.21-3.63-1.54-7.81-.17-11.33,1.6s-7,4-10.94,4.25c-3.42.22-7.14-1-10.13.63-2.23,1.24-3.4,3.81-5.46,5.33s-4.63,1.8-7.13,1.93-5.08.16-7.35,1.2-4.16,3.45-3.68,5.9Z" style="fill:#f5f5f5"></path><path d="M291.65,166l.9,1.5a10.36,10.36,0,0,0,4.25,3.92l1.58.77-1.51.91a10.28,10.28,0,0,0-3.91,4.25l-.78,1.57-.9-1.5a10.26,10.26,0,0,0-4.26-3.92l-1.57-.77,1.51-.91a10.28,10.28,0,0,0,3.91-4.25Z" style="fill:#e0e0e0"></path><path d="M38.34,261l.91,1.51a10.28,10.28,0,0,0,4.25,3.91l1.57.78-1.5.9a10.26,10.26,0,0,0-3.92,4.26l-.78,1.57-.9-1.51a10.28,10.28,0,0,0-4.25-3.91l-1.57-.78,1.5-.9a10.43,10.43,0,0,0,3.92-4.25Z" style="fill:#e0e0e0"></path><path d="M168.33,92.27l.77,7.66a7.62,7.62,0,0,0,2.29,4.87l.09.08a7.7,7.7,0,0,0,4.78,1.87l6,.3-6.22,1.11a7.77,7.77,0,0,0-4.26,2.2l-.37.39a7.82,7.82,0,0,0-1.84,4.47l-.69,7.64-.76-7.23a7.6,7.6,0,0,0-2.28-4.82l-.24-.22a7.81,7.81,0,0,0-4.36-1.83l-6.39-.67,6-.73a7.64,7.64,0,0,0,4.69-2.27l.22-.24a7.73,7.73,0,0,0,1.85-4.5Z" style="fill:#e0e0e0"></path><path d="M42.72,90l.57,5.64A5.64,5.64,0,0,0,45,99.23l.06.06a5.66,5.66,0,0,0,3.52,1.37l4.46.23-4.59.82a5.8,5.8,0,0,0-3.14,1.61l-.27.29a5.73,5.73,0,0,0-1.35,3.29l-.51,5.64-.56-5.33a5.58,5.58,0,0,0-1.68-3.55l-.18-.17a5.83,5.83,0,0,0-3.21-1.34l-4.71-.5,4.41-.53a5.6,5.6,0,0,0,3.46-1.68,1.29,1.29,0,0,0,.16-.17A5.71,5.71,0,0,0,42.21,96Z" style="fill:#e0e0e0"></path><path d="M421,258.93l.57,5.64a5.58,5.58,0,0,0,1.68,3.59l.07.06a5.66,5.66,0,0,0,3.52,1.37l4.46.23-4.59.82a5.73,5.73,0,0,0-3.14,1.61l-.27.29a5.81,5.81,0,0,0-1.36,3.29l-.5,5.64-.56-5.33a5.64,5.64,0,0,0-1.69-3.55l-.18-.17a5.8,5.8,0,0,0-3.2-1.34l-4.72-.5,4.42-.53a5.63,5.63,0,0,0,3.46-1.68l.16-.17a5.78,5.78,0,0,0,1.36-3.32Z" style="fill:#e0e0e0"></path><path d="M472.06,149l.56,5.64a5.64,5.64,0,0,0,1.69,3.59l.07.06a5.64,5.64,0,0,0,3.52,1.37l4.45.23-4.58.82a5.79,5.79,0,0,0-3.15,1.61l-.26.3a5.69,5.69,0,0,0-1.36,3.29l-.51,5.63-.56-5.33a5.58,5.58,0,0,0-1.68-3.55l-.18-.17a5.8,5.8,0,0,0-3.21-1.34l-4.71-.49,4.41-.54A5.62,5.62,0,0,0,470,158.4l.17-.18a5.84,5.84,0,0,0,1.36-3.32Z" style="fill:#e0e0e0"></path><path d="M333.23,49.35l.46.75a5.05,5.05,0,0,0,2.12,1.95l.79.39-.75.45a5.1,5.1,0,0,0-2,2.13l-.39.79-.45-.75a5.1,5.1,0,0,0-2.13-2l-.78-.39.75-.45a5.23,5.23,0,0,0,2-2.13Z" style="fill:#e0e0e0"></path><path d="M274.56,126.38l.45.75a5.23,5.23,0,0,0,2.13,2l.78.38-.75.46a5.14,5.14,0,0,0-2,2.12l-.38.79-.46-.75a5,5,0,0,0-2.12-2l-.79-.39.75-.45a5.1,5.1,0,0,0,2-2.13Z" style="fill:#e0e0e0"></path><path d="M455.88,59.86l.45.75a5.1,5.1,0,0,0,2.13,2l.78.39-.75.45a5.23,5.23,0,0,0-2,2.13l-.38.78-.46-.75a5.05,5.05,0,0,0-2.12-1.95l-.79-.39.75-.45a5.16,5.16,0,0,0,2-2.13Z" style="fill:#e0e0e0"></path><path d="M196.32,182.63l.46.75a5.05,5.05,0,0,0,2.12,2l.79.39-.75.45a5.1,5.1,0,0,0-2,2.13l-.39.79-.45-.75a5.1,5.1,0,0,0-2.13-2l-.78-.39.75-.45a5.23,5.23,0,0,0,2-2.13Z" style="fill:#e0e0e0"></path><circle cx="257.68" cy="70.48" r="43.96" style="fill:#ebebeb"></circle><path d="M263.72,110.31A44,44,0,0,1,236,32.24a44,44,0,1,0,49.43,72.34A43.74,43.74,0,0,1,263.72,110.31Z" style="fill:#e0e0e0"></path><circle cx="279.83" cy="58.95" r="9.61" transform="translate(176.69 325.68) rotate(-80.75)" style="fill:#f5f5f5"></circle><path d="M293,83.43a6.58,6.58,0,1,1-6.58-6.58A6.58,6.58,0,0,1,293,83.43Z" style="fill:#f5f5f5"></path><path d="M297.29,58.86a4.36,4.36,0,0,1-.25-.55c-.16-.36-.35-.92-.66-1.6a44.31,44.31,0,0,0-2.87-5.65,42.72,42.72,0,0,0-34.29-20.85,45.62,45.62,0,0,0-6.33,0c-.75,0-1.33.13-1.72.16a2.58,2.58,0,0,1-.61,0,3.66,3.66,0,0,1,.59-.13c.4-.05,1-.18,1.72-.25a40.37,40.37,0,0,1,6.37-.21,41.91,41.91,0,0,1,34.58,21,38.26,38.26,0,0,1,2.75,5.75c.28.7.44,1.27.57,1.64A2.14,2.14,0,0,1,297.29,58.86Z" style="fill:#fff"></path><path d="M298,77.58a32.07,32.07,0,0,0,1.16-6.4,31.36,31.36,0,0,0-.7-6.46,5.08,5.08,0,0,1,.7,1.81,16.1,16.1,0,0,1-.33,9.29A5.37,5.37,0,0,1,298,77.58Z" style="fill:#fff"></path><path d="M118.19,153c.66-4.8-6.11-8.75-11.2-9.16-2.42-.19-4.94.18-7.24-.62-5-1.74-7-8.17-11.83-10.22-3.63-1.53-7.81-.17-11.33,1.6s-7,4-10.94,4.26c-3.42.22-7.14-1.05-10.13.62-2.23,1.25-3.4,3.82-5.46,5.33s-4.63,1.8-7.13,1.94-5.08.16-7.35,1.2-4.15,3.44-3.68,5.9Z" style="fill:#ebebeb"></path><path d="M160,44.77c.47-3.45-4.39-6.28-8-6.57-1.74-.14-3.55.12-5.2-.45-3.57-1.25-5-5.87-8.49-7.34-2.61-1.1-5.61-.12-8.14,1.15s-5,2.88-7.85,3.06c-2.45.16-5.12-.76-7.27.44-1.6.9-2.44,2.74-3.91,3.83A9.34,9.34,0,0,1,106,40.28a14.6,14.6,0,0,0-5.28.86c-1.63.75-3,2.48-2.65,4.24Z" style="fill:#f5f5f5"></path><path d="M435.39,121.55c.47-3.44-4.39-6.28-8-6.57-1.74-.14-3.55.13-5.2-.45-3.57-1.25-5-5.86-8.49-7.33-2.6-1.1-5.61-.12-8.13,1.15s-5,2.87-7.85,3.05c-2.46.16-5.13-.75-7.28.45-1.6.89-2.44,2.74-3.91,3.83a9.33,9.33,0,0,1-5.12,1.38,14.43,14.43,0,0,0-5.28.87c-1.63.74-3,2.47-2.64,4.23Z" style="fill:#ebebeb"></path></g><g id="freepik--Floor--inject-341"><path d="M486.22,416c0,.15-105.77.27-236.21.27S13.78,416.18,13.78,416s105.75-.26,236.23-.26S486.22,415.89,486.22,416Z" style="fill:#263238"></path></g><g id="freepik--Plant--inject-341"><path d="M421.37,416.7a17.32,17.32,0,0,1-1.15-2.5,63.42,63.42,0,0,0-3-5.92,62.39,62.39,0,0,0-3.56-5.58,19.26,19.26,0,0,1-1.56-2.27,11.73,11.73,0,0,1,1.86,2.05,44,44,0,0,1,6.56,11.58A12,12,0,0,1,421.37,416.7Z" style="fill:#263238"></path><path d="M420.66,385.57a5.49,5.49,0,0,1,.36,1.19c.2.78.47,1.91.78,3.3.63,2.79,1.43,6.66,2.22,10.95s1.42,8.2,1.83,11c.2,1.41.36,2.56.45,3.36a6.33,6.33,0,0,1,.09,1.24,5.38,5.38,0,0,1-.29-1.21c-.17-.89-.37-2-.61-3.33-.53-2.92-1.22-6.76-2-11l-2.07-11c-.24-1.33-.45-2.44-.62-3.33A6.86,6.86,0,0,1,420.66,385.57Z" style="fill:#263238"></path><path d="M433.85,400.17a32.32,32.32,0,0,0-2.45,16.51,8.57,8.57,0,0,1-.5-2.45,23.59,23.59,0,0,1,.13-6,24.14,24.14,0,0,1,1.63-5.82A8.74,8.74,0,0,1,433.85,400.17Z" style="fill:#263238"></path><path d="M459.41,379.11a7.09,7.09,0,0,1,3.68,4.17,12.42,12.42,0,0,1,.49,5.65c-.41,3.67-2.5,7.37-4.74,10.3-3.09-2.7-3.8-7.4-4-9.8-.33-3.81,1.38-10.88,4.58-10.32" style="fill:#B4E0E0"></path><path d="M462.43,405.28a6,6,0,0,1,2-5.76,8,8,0,0,1,5.93-1.86,3.41,3.41,0,0,1,2.61,1.17,2.63,2.63,0,0,1,0,2.63,5.33,5.33,0,0,1-2,1.91c-2.67,1.68-5.57,2.82-8.59,1.91" style="fill:#B4E0E0"></path><path d="M458.47,416.52a3.66,3.66,0,0,1,.11-.75c.1-.53.22-1.22.37-2a21.23,21.23,0,0,1,2.1-6.5,13,13,0,0,1,4.67-5,8.63,8.63,0,0,1,1.9-.85c.24-.07.43-.1.55-.13s.2,0,.2,0a12.07,12.07,0,0,0-7.08,6.1,22.8,22.8,0,0,0-2.15,6.41c-.19.85-.34,1.54-.46,2A4.42,4.42,0,0,1,458.47,416.52Z" style="fill:#263238"></path><path d="M458.59,384.62a1.39,1.39,0,0,1,0,.33l.06.94c0,.82.09,2,.14,3.48.09,2.94.17,7,.15,11.48s-.13,8.55-.25,11.48c-.06,1.47-.12,2.66-.17,3.48,0,.39-.05.7-.06.94s0,.33,0,.33a1.19,1.19,0,0,1,0-.33c0-.24,0-.56,0-.95,0-.85.05-2,.08-3.47.07-2.94.15-7,.17-11.48s0-8.54-.07-11.48c0-1.44,0-2.62-.05-3.48,0-.38,0-.7,0-.94A1.19,1.19,0,0,1,458.59,384.62Z" style="fill:#263238"></path><path d="M457.09,407.51a14.17,14.17,0,0,0-7.74-10.39c-1-.49-2.38-.81-3.23-.05s-.66,2.15-.24,3.22A12.09,12.09,0,0,0,457,407.81" style="fill:#B4E0E0"></path><path d="M449.85,400.6a3.81,3.81,0,0,1,.65.29,7.91,7.91,0,0,1,.74.39,10,10,0,0,1,.94.59,11.68,11.68,0,0,1,1.08.81,12.16,12.16,0,0,1,1.15,1.05,15.51,15.51,0,0,1,2.18,2.8,15.72,15.72,0,0,1,1.44,3.24c.14.53.28,1,.36,1.51a12.14,12.14,0,0,1,.18,1.34,8.86,8.86,0,0,1,.05,1.11,5.52,5.52,0,0,1,0,.84,3.16,3.16,0,0,1-.08.71c-.06,0,0-1-.13-2.64-.06-.41-.11-.85-.22-1.32a13.3,13.3,0,0,0-.38-1.47,14.84,14.84,0,0,0-3.56-6c-.38-.38-.74-.74-1.11-1a11.65,11.65,0,0,0-1.05-.82C450.75,401.08,449.82,400.65,449.85,400.6Z" style="fill:#263238"></path><path d="M249.46,462.43a23.49,23.49,0,0,1-1.06-2.88A67.44,67.44,0,0,0,242,446.24a25.48,25.48,0,0,1-1.59-2.64,13.76,13.76,0,0,1,1.9,2.44,49.36,49.36,0,0,1,6.41,13.39A14.28,14.28,0,0,1,249.46,462.43Z" style="fill:#263238"></path><path d="M252.23,460.89c-.14,0-1.08-5.33-2.09-11.95s-1.72-12-1.58-12,1.08,5.33,2.09,12S252.37,460.87,252.23,460.89Z" style="fill:#263238"></path><path d="M257.68,440.33c.07,0-.32,1.24-.81,3.23a52.33,52.33,0,0,0-1.33,7.88,53.14,53.14,0,0,0-.09,8c.14,2,.3,3.31.22,3.32a3.76,3.76,0,0,1-.23-.87c-.12-.57-.24-1.39-.35-2.42a40.79,40.79,0,0,1-.07-8.08,41.5,41.5,0,0,1,1.49-7.93c.3-1,.57-1.78.79-2.32S257.64,440.31,257.68,440.33Z" style="fill:#263238"></path><path d="M40.05,392.72a3.31,3.31,0,0,1,.61.76,26.09,26.09,0,0,1,1.44,2.24,36.72,36.72,0,0,1,4.83,16.72,24.72,24.72,0,0,1,0,2.66,4,4,0,0,1-.11,1c-.09,0-.07-1.39-.24-3.61A43.5,43.5,0,0,0,45,403.93a43.75,43.75,0,0,0-3.25-8C40.74,393.93,40,392.77,40.05,392.72Z" style="fill:#263238"></path><path d="M51.19,385.87a4.59,4.59,0,0,1,.24,1.15c.13.75.28,1.84.45,3.19.35,2.69.77,6.42,1.12,10.55s.58,7.87.7,10.58c.06,1.36.09,2.46.1,3.21a5.66,5.66,0,0,1,0,1.19,5.31,5.31,0,0,1-.17-1.17c-.07-.87-.15-1.94-.26-3.21-.23-2.82-.52-6.49-.85-10.56s-.7-7.73-1-10.55c-.12-1.27-.21-2.34-.29-3.2A5.56,5.56,0,0,1,51.19,385.87Z" style="fill:#263238"></path><path d="M63.64,399.49a27.35,27.35,0,0,0-4,16.23,8.85,8.85,0,0,1-.37-2.5,21.14,21.14,0,0,1,.59-6.06,21.46,21.46,0,0,1,2.29-5.64A8.5,8.5,0,0,1,63.64,399.49Z" style="fill:#263238"></path><path d="M74.44,440.6a7.09,7.09,0,0,1,3.68,4.17,12.54,12.54,0,0,1,.49,5.65c-.42,3.66-2.5,7.37-4.74,10.29-3.09-2.69-3.8-7.39-4-9.8-.33-3.8,1.38-10.88,4.58-10.31" style="fill:#B4E0E0"></path><path d="M77.46,466.76a6,6,0,0,1,2-5.76,8.07,8.07,0,0,1,5.93-1.85A3.39,3.39,0,0,1,88,460.32,2.63,2.63,0,0,1,88,463a5.33,5.33,0,0,1-2,1.91c-2.67,1.68-5.57,2.81-8.59,1.9" style="fill:#B4E0E0"></path><path d="M73.5,478a3.75,3.75,0,0,1,.11-.75c.1-.53.22-1.21.37-2a21.37,21.37,0,0,1,2.1-6.51,13.1,13.1,0,0,1,4.67-5,9,9,0,0,1,1.9-.84,5.53,5.53,0,0,1,.55-.14.6.6,0,0,1,.2,0,12.09,12.09,0,0,0-7.08,6.09,22.58,22.58,0,0,0-2.15,6.41c-.19.86-.34,1.55-.46,2A3.71,3.71,0,0,1,73.5,478Z" style="fill:#263238"></path><path d="M73.61,446.1a1.14,1.14,0,0,1,0,.33l.06.95c0,.82.09,2,.14,3.48.09,2.93.17,7,.15,11.48s-.13,8.54-.25,11.48c-.06,1.47-.12,2.65-.17,3.47,0,.39,0,.71-.07.95a1.14,1.14,0,0,1,0,.33,1.72,1.72,0,0,1,0-.33c0-.25,0-.56,0-.95,0-.85,0-2,.09-3.48.07-2.93.15-7,.17-11.47s0-8.54-.07-11.48c0-1.44,0-2.62-.06-3.48v-.95C73.6,446.22,73.61,446.1,73.61,446.1Z" style="fill:#263238"></path><path d="M72.12,469a14.21,14.21,0,0,0-7.75-10.39c-1-.49-2.37-.82-3.22-.05s-.66,2.15-.25,3.22A12.13,12.13,0,0,0,72,469.3" style="fill:#B4E0E0"></path><path d="M64.87,462.09a3.1,3.1,0,0,1,.66.28,6.32,6.32,0,0,1,.74.4,10,10,0,0,1,.94.59,13.19,13.19,0,0,1,1.08.81,15.22,15.22,0,0,1,1.15,1,16.36,16.36,0,0,1,2.18,2.8,15.44,15.44,0,0,1,1.43,3.25,14.36,14.36,0,0,1,.37,1.51,11.83,11.83,0,0,1,.18,1.34,8.86,8.86,0,0,1,.05,1.11,5.56,5.56,0,0,1,0,.84,4.14,4.14,0,0,1-.08.71c-.06,0,0-1-.14-2.64a11.94,11.94,0,0,0-.21-1.32,14.05,14.05,0,0,0-.38-1.48,15,15,0,0,0-3.56-5.95,15,15,0,0,0-1.11-1c-.36-.32-.72-.58-1.05-.83C65.78,462.56,64.85,462.14,64.87,462.09Z" style="fill:#263238"></path></g><g id="freepik--character-2--inject-341"><g style="opacity:0.30000000000000004"><path d="M402,420.36c-6.11-6.5-15.34-8.92-24.12-10.47A212.27,212.27,0,0,0,282.06,415l-7,1c12.3,16.76,22.67,30.74,40,42.29s38.7,18.13,59.11,14.21c11.84-2.27,23.39-8.42,29.79-18.64S410.29,429.14,402,420.36Z"></path></g><path d="M337,305.68l-30.24,14.76L295.4,293.36s-2.39.65-8.27-10.65S271,252.35,271,252.35h0a47.21,47.21,0,0,1,43.66-15.72l2.4.42Z" style="fill:#ffbe9d"></path><path d="M320.4,252.9c.16-.18,6.93-6.39,10.59,1.52s-5.31,10.1-5.43,9.88S320.4,252.9,320.4,252.9Z" style="fill:#ffbe9d"></path><path d="M281.75,270.32c-.24,0-8.36,1.76-4.19,9.41s11.27,1.75,11.17,1.52S281.75,270.32,281.75,270.32Z" style="fill:#ffbe9d"></path><path d="M322.57,250.72c2.08,7.12,4,10.43,5.12,15.34,1.7,7.77.82,14.84-3.88,21.51s-13.41,11-21.29,9.09c-5.47-1.33-10-3.63-13.06-8.24s-8-13-10.48-17.89c-4.53-8.84-9.42-17-9.42-17l24-17.81,19.27,1.05Z" style="fill:#263238"></path><path d="M312.5,298.19c.05.2,2.37-.35,4.8-1.93s3.89-3.44,3.73-3.57-1.82,1.41-4.16,2.91S312.43,298,312.5,298.19Z" style="fill:#263238"></path><path d="M326.88,262.44c-2.59-7.07-5.94-15-8.4-22.54-.92-2.85-1.87-7.15-3.45-9.68s-3.23-5.16-5.66-7a12.92,12.92,0,0,0-11-1.93,13.31,13.31,0,0,0-8.49,7.42,10,10,0,0,0-10.75,1.09,9.61,9.61,0,0,0-3,10.21,7,7,0,0,0-7.53,2.86,6.49,6.49,0,0,0,.64,7.79,6.57,6.57,0,0,0-2.7,5.45,6.18,6.18,0,0,0,3.11,5.07c2.13,1.2,4.82,1.09,7,2.14a7.05,7.05,0,0,1,3.94,6.81" style="fill:#263238"></path><path d="M278.25,256.67s.18.26.66.59a5.84,5.84,0,0,0,2.36.88,6.28,6.28,0,0,0,3.94-.67,6.65,6.65,0,0,0,3.26-4l-.63.14a6,6,0,0,0,5.47,2.12,7.24,7.24,0,0,0,5.56-3.7,9.7,9.7,0,0,0,1.21-5.9l-.6.39a8.34,8.34,0,0,0,7.53.16,7.8,7.8,0,0,0,4-4.5,7.42,7.42,0,0,0,.32-3.88,3.18,3.18,0,0,0-.47-1.31c-.06,0,.1.48.2,1.35a8,8,0,0,1-.52,3.69,7.4,7.4,0,0,1-3.82,4,7.72,7.72,0,0,1-6.84-.22l-.68-.39.08.78a9,9,0,0,1-1.13,5.4,6.41,6.41,0,0,1-4.91,3.32,5.32,5.32,0,0,1-4.84-1.77l-.44-.59-.19.72a6.11,6.11,0,0,1-2.84,3.69,6,6,0,0,1-3.61.76A8,8,0,0,1,278.25,256.67Z" style="fill:#455a64"></path><path d="M276.75,253.56a7.54,7.54,0,0,1-.31-3.39A5.4,5.4,0,0,1,278.3,247a5.74,5.74,0,0,1,4.38-1.27l.86.12-.45-.73a6.22,6.22,0,0,1-.85-2.37,6.92,6.92,0,0,1,1.4-5.26,7.11,7.11,0,0,1,3.92-2.4,9.78,9.78,0,0,1,4.35.13,2.49,2.49,0,0,0-1.09-.53,7.21,7.21,0,0,0-3.37-.16,7.33,7.33,0,0,0-6,8.36,6.77,6.77,0,0,0,1,2.66l.41-.6a6.38,6.38,0,0,0-5,1.54,5.71,5.71,0,0,0-1.93,3.64,5.36,5.36,0,0,0,.32,2.64C276.48,253.33,276.71,253.59,276.75,253.56Z" style="fill:#455a64"></path><path d="M293.61,245.36c.08-.1-.24-.43-.51-1.08a5.51,5.51,0,0,1-.34-2.71,28.55,28.55,0,0,1,.48-2.83c.21-.6.72-.51.76-.58s0-.19-.33-.23a1.07,1.07,0,0,0-.95.58,6.82,6.82,0,0,0-.46,1.34,9.74,9.74,0,0,0-.31,1.67,4.58,4.58,0,0,0,.64,3C293.05,245.24,293.56,245.44,293.61,245.36Z" style="fill:#455a64"></path><path d="M304.28,227.74c.06-.07-.31-.61-1.21-1.18a4.43,4.43,0,0,0-1.81-.61,3.59,3.59,0,0,0-2.36.62,5.72,5.72,0,0,0-2.22,3.54c-.23,1-.25,1.64-.14,1.66s.34-.57.69-1.51a6.17,6.17,0,0,1,2.12-3,3.47,3.47,0,0,1,3.44-.16C303.68,227.46,304.19,227.83,304.28,227.74Z" style="fill:#455a64"></path><path d="M316.78,262.77c.21,0,.73-2.84.28-6.35s-1.63-6.14-1.82-6.05.6,2.75,1,6.16S316.54,262.76,316.78,262.77Z" style="fill:#455a64"></path><path d="M314.2,266.41c.22,0,.41-2,.17-4.51s-.79-4.43-1-4.38,0,2,.18,4.47S314,266.42,314.2,266.41Z" style="fill:#455a64"></path><path d="M292.33,278.08c-.19.05,1.07,3.46,4.35,6.38s6.84,3.89,6.87,3.69-3.2-1.46-6.31-4.29S292.56,278,292.33,278.08Z" style="fill:#455a64"></path><path d="M286,274.19c-.21,0,.17,3.29,2.58,6.41s5.49,4.41,5.54,4.22-2.63-1.72-4.88-4.71S286.19,274.12,286,274.19Z" style="fill:#455a64"></path><path d="M270.31,251.57c0,.08-.39.28-.9.78a4.24,4.24,0,0,0-1.21,2.41,4.19,4.19,0,0,0,.59,2.63c.37.61.73.91.67,1s-.48-.16-1-.77a3.92,3.92,0,0,1,.68-5.52C269.8,251.6,270.29,251.51,270.31,251.57Z" style="fill:#fff"></path><path d="M274.55,241.31a6.09,6.09,0,0,1-1.38.74,8.85,8.85,0,0,0-3,2.09,4.05,4.05,0,0,0-.89,3.31,5.86,5.86,0,0,0,.62,1.37c0,.05-.65-.27-1-1.27a4.14,4.14,0,0,1,.86-3.75,7.62,7.62,0,0,1,3.22-2.09A4.12,4.12,0,0,1,274.55,241.31Z" style="fill:#fff"></path><path d="M283.86,229.26c0,.09-.72.18-1.79.62a8.4,8.4,0,0,0-3.49,2.72,8.3,8.3,0,0,0-1.54,4.15c-.1,1.16,0,1.88-.06,1.9a4,4,0,0,1-.31-1.92,7.72,7.72,0,0,1,5.27-7.19A3.73,3.73,0,0,1,283.86,229.26Z" style="fill:#fff"></path><path d="M297.68,223.77c.07.14-1.46,1-3.07,2.33s-2.68,2.72-2.81,2.63a10.68,10.68,0,0,1,5.88-5Z" style="fill:#fff"></path><path d="M284.63,247.31a4.52,4.52,0,0,1-1.08-2.07,8.15,8.15,0,0,1,4.19-9.72,4.7,4.7,0,0,1,2.26-.63c0,.09-.87.26-2.09,1a8.31,8.31,0,0,0-4,9.29C284.23,246.51,284.71,247.27,284.63,247.31Z" style="fill:#fff"></path><path d="M298.35,233.78a4.2,4.2,0,0,1,2.94-4.71,13.2,13.2,0,0,0-1.92,2.07A13.76,13.76,0,0,0,298.35,233.78Z" style="fill:#fff"></path><path d="M262.86,391.56c1.48,2.08,12.26,32.14,29,44.77s32.25,20.73,56.28,19.95,36.65-7.28,45.6-10.79c24.15-9.49,15.64-28.16,15.64-28.16l-42.13-10.6-57-30.29S289.64,357,282.09,354.25s-17.42,9.16-19.51,19.75S262.86,391.56,262.86,391.56Z" style="fill:#263238"></path><path d="M299.61,426.14a3.17,3.17,0,0,1-.14-1,25,25,0,0,1-.1-2.74,41.18,41.18,0,0,1,4.07-17.48c.51-1,1-1.86,1.3-2.4a3.56,3.56,0,0,1,.57-.83c.08,0-.61,1.29-1.53,3.39a47.79,47.79,0,0,0-4,17.33C299.63,424.71,299.7,426.14,299.61,426.14Z" style="fill:#455a64"></path><path d="M293.9,413.1a15.76,15.76,0,0,1,1.28-2.93,61.71,61.71,0,0,1,3.94-6.64,58.37,58.37,0,0,1,4.76-6.08,15.84,15.84,0,0,1,2.26-2.26,23.79,23.79,0,0,1-2,2.5c-1.25,1.52-2.92,3.66-4.61,6.14s-3.08,4.8-4,6.52A24.79,24.79,0,0,1,293.9,413.1Z" style="fill:#455a64"></path><path d="M348.85,172.39l-1.46-10.34s-4.56-4.26-5.64-6-6.55-1.27-6.55-1.27l-1.57-16.44s-.71-2.92-3.36-1.15S329,158.26,329,158.26l-.62,4.48s-5.23-6.52-8.19-5.6,1,4.35,1.65,6.26,12.26,12.75,12.26,12.75l10.14,20.33,2.15,0,7.14,5.05,6.95-10.43Z" style="fill:#ffbe9d"></path><path d="M289.42,312.06s-10.53,6.76-13.93,17.58c-1.61,5.1-.54,27.22,1.08,47.34.41,5.07,1.11,25,5.09,28.11.09.07,2.49,3.32,8.44,3.32,11.06,0,12.69-7.27,16-17.81L305.31,378s4.48-42.35,2.85-49.68S289.42,312.06,289.42,312.06Z" style="fill:#455a64"></path><path d="M343.73,275.69l-11.52,8.77s-1.64,12.86-16.71,21a19.63,19.63,0,0,1-14.4,1.45l-11.68,5.14-5.2,40.2,24.22,36.56,3,14,.37,5a36.52,36.52,0,0,0,1.71,17.78c3.39,9.37,6.78,21.25,50.22,21.14,37.94-.09,48-24.78,48.37-27.63s-10.26-29.76-12.3-36.52-23.58-79.93-23.58-79.93l-8.65-19.39Z" style="fill:#455a64"></path><path d="M348.62,222.63l-16.41,61.83,21.55,7.67,11,5.35,3.62-18.72s8.69-48,8.75-55.93c.07-10-23-46.2-23-46.2s-13-2-17,11Z" style="fill:#455a64"></path><path d="M345.68,431.29A9.81,9.81,0,0,1,344,431a17.08,17.08,0,0,1-2-.46c-.76-.22-1.63-.41-2.56-.77a30.33,30.33,0,0,1-3-1.17c-1.09-.43-2.18-1-3.35-1.61a52.12,52.12,0,0,1-7.11-4.7,67.25,67.25,0,0,1-10.81-11c-1.22-1.55-2.17-2.84-2.78-3.76a10.15,10.15,0,0,1-.93-1.45,11,11,0,0,1,1.09,1.33c.66.88,1.65,2.13,2.9,3.65a74.08,74.08,0,0,0,10.86,10.83,53.2,53.2,0,0,0,7,4.69c1.15.6,2.23,1.19,3.29,1.64s2.05.87,3,1.22,1.78.59,2.52.83,1.39.41,1.93.54A12.78,12.78,0,0,1,345.68,431.29Z" style="fill:#263238"></path><path d="M389.63,355.25a4.14,4.14,0,0,1,0,.62c0,.46-.07,1-.12,1.76-.1,1.54-.32,3.76-.63,6.49a209.38,209.38,0,0,1-3.65,21.19,205.15,205.15,0,0,1-5.84,20.7c-.89,2.6-1.65,4.69-2.21,6.13l-.66,1.64a3.36,3.36,0,0,1-.26.56,2.65,2.65,0,0,1,.16-.59c.15-.44.33-1,.56-1.68.51-1.45,1.22-3.56,2.06-6.18,1.69-5.23,3.83-12.52,5.68-20.69s3.07-15.68,3.79-21.13c.36-2.72.63-4.93.8-6.45l.22-1.76A2.38,2.38,0,0,1,389.63,355.25Z" style="fill:#263238"></path><path d="M381.38,336.78a11.9,11.9,0,0,1-.41,1.74c-.28,1.11-.75,2.7-1.38,4.66a54.24,54.24,0,0,1-7,14.43,84.74,84.74,0,0,1-5.48,6.93L362.41,370l-3.2,3.64a12.22,12.22,0,0,1-1.23,1.3,11.52,11.52,0,0,1,1.07-1.43c.71-.9,1.77-2.18,3.08-3.75s2.92-3.44,4.66-5.49,3.64-4.36,5.41-6.92a58.56,58.56,0,0,0,7.05-14.25c.66-1.93,1.19-3.5,1.53-4.6A10.49,10.49,0,0,1,381.38,336.78Z" style="fill:#263238"></path><path d="M293.12,364.59a66.58,66.58,0,0,1-8.4.26,66.68,66.68,0,0,1-8.41-.26,69,69,0,0,1,8.41-.26A68.92,68.92,0,0,1,293.12,364.59Z" style="fill:#fff"></path><path d="M381.15,317.26l-.24.12-.7.3-2.73,1.11c-2.37,1-5.79,2.36-10,4.13-8.43,3.53-20,8.65-32.49,14.81s-23.68,12.08-31.76,16.34l-9.58,5.06L291,360.48l-.69.34a.76.76,0,0,1-.24.1s.07-.06.21-.14l.67-.39,2.56-1.44,9.5-5.2c8-4.35,19.19-10.32,31.71-16.49s24.11-11.23,32.58-14.68c4.24-1.73,7.69-3.07,10.08-4l2.76-1,.72-.25A1.15,1.15,0,0,1,381.15,317.26Z" style="fill:#fff"></path><path d="M368.41,275.25a7.26,7.26,0,0,1-.79-1.18c-.47-.78-1.17-1.89-2-3.27s-2-3-3.33-4.63a28.8,28.8,0,0,0-4.91-4.9,24.87,24.87,0,0,0-11.61-4.6c-1.61-.18-2.92-.33-3.83-.35a8.58,8.58,0,0,1-1.41-.14,6.88,6.88,0,0,1,1.42-.07,34.54,34.54,0,0,1,3.87.2,24.06,24.06,0,0,1,11.88,4.54,28.33,28.33,0,0,1,5,5,50,50,0,0,1,3.26,4.74c.83,1.4,1.49,2.55,1.91,3.36A7.22,7.22,0,0,1,368.41,275.25Z" style="fill:#fff"></path><path d="M357.63,370.44a2.87,2.87,0,0,1-.43.3l-1.3.77c-1.13.67-2.8,1.57-4.9,2.64a124,124,0,0,1-16.94,7,125.42,125.42,0,0,1-17.79,4.46c-2.32.39-4.2.66-5.5.8l-1.51.15a.27.27,0,1,1,0-.1l1.49-.25c1.29-.2,3.16-.52,5.46-1a139.61,139.61,0,0,0,34.64-11.45c2.11-1,3.8-1.88,5-2.49l1.35-.69A1.65,1.65,0,0,1,357.63,370.44Z" style="fill:#fff"></path><path d="M389.63,349.33s-.19.27-.59.67-1,1-1.76,1.66a44.55,44.55,0,0,1-6.36,4.85,46.32,46.32,0,0,1-7.17,3.52c-1,.37-1.73.65-2.28.83a2.45,2.45,0,0,1-.86.22,24.48,24.48,0,0,1,3-1.39,60.66,60.66,0,0,0,7-3.62,61.31,61.31,0,0,0,6.39-4.68A24.76,24.76,0,0,1,389.63,349.33Z" style="fill:#fff"></path><path d="M380.12,392.27a2.74,2.74,0,0,1-.49.42l-1.46,1.11c-.64.48-1.42,1.06-2.36,1.69s-2,1.39-3.2,2.14c-2.39,1.56-5.31,3.3-8.63,5.09s-7.08,3.56-11.1,5.23-7.95,3-11.56,4.11-6.91,1.91-9.7,2.48c-1.39.33-2.67.53-3.78.74s-2.08.36-2.87.46l-1.82.25a2.39,2.39,0,0,1-.64,0,4,4,0,0,1,.63-.15l1.8-.34c.78-.13,1.74-.31,2.84-.55s2.38-.46,3.76-.81c2.77-.62,6-1.48,9.64-2.58s7.49-2.48,11.51-4.13,7.73-3.45,11.06-5.18,6.26-3.45,8.66-5c1.22-.73,2.28-1.46,3.23-2.07s1.76-1.16,2.41-1.62l1.52-1A3.41,3.41,0,0,1,380.12,392.27Z" style="fill:#fff"></path><path d="M399.83,381.51a125.16,125.16,0,0,1-13.4,9.09,125.16,125.16,0,0,1,13.4-9.09Z" style="fill:#fff"></path><path d="M409.37,409.24s-.05.07-.18.19l-.56.53-2.21,2-1.6,1.44c-.59.52-1.3,1-2,1.58-1.48,1.09-3.07,2.46-5.05,3.67l-3.05,2c-1.05.71-2.24,1.27-3.42,1.95l-1.82,1a17.09,17.09,0,0,1-1.91,1l-4.07,1.87a88.07,88.07,0,0,1-38.89,7.1l-4.47-.31A18.74,18.74,0,0,1,338,433l-2.05-.3c-1.35-.22-2.66-.32-3.9-.61l-3.55-.78c-2.28-.43-4.25-1.16-6-1.65-.88-.28-1.71-.49-2.44-.77l-2-.77-2.77-1.1-.72-.29a1,1,0,0,1-.24-.12,1,1,0,0,1,.26.07l.74.25,2.8,1,2,.73c.74.26,1.57.46,2.45.72,1.77.47,3.74,1.17,6,1.57l3.54.74c1.23.28,2.54.38,3.88.58l2,.28a18.56,18.56,0,0,0,2.12.22l4.45.29A89.07,89.07,0,0,0,383.29,426l4.06-1.84a18.87,18.87,0,0,0,1.91-.95l1.81-1c1.18-.67,2.37-1.22,3.42-1.91l3.06-2c2-1.18,3.58-2.53,5.07-3.59.73-.56,1.44-1,2-1.54l1.63-1.4,2.27-1.93.6-.49A1,1,0,0,1,409.37,409.24Z" style="fill:#fff"></path><path d="M363.76,283.79s0,.08-.1.23l-.35.67c-.33.57-.74,1.46-1.43,2.51a53.15,53.15,0,0,1-6.47,8.44,72.83,72.83,0,0,1-12,10.27,119.43,119.43,0,0,1-16.76,9.6c-6.2,2.94-12.23,5.42-17.7,7.71s-10.39,4.38-14.44,6.29-7.28,3.57-9.47,4.79c-1.11.59-1.94,1.1-2.52,1.41l-.66.36-.23.11a.77.77,0,0,1,.21-.15l.63-.41c.56-.34,1.38-.88,2.47-1.5,2.16-1.27,5.37-3,9.41-4.94s8.95-4.09,14.41-6.4S320.28,318,326.45,315a123.48,123.48,0,0,0,16.72-9.52,75.41,75.41,0,0,0,12-10.13,57.07,57.07,0,0,0,6.56-8.3c.72-1,1.15-1.9,1.51-2.45l.39-.64A1.34,1.34,0,0,1,363.76,283.79Z" style="fill:#fff"></path><path d="M375.4,237.85c-.07.07-1.31-1.12-3.54-2.73a39.93,39.93,0,0,0-4.07-2.6,43.36,43.36,0,0,0-5.37-2.48A40.06,40.06,0,0,0,352,227.62c-2.74-.25-4.46-.18-4.46-.28a6.45,6.45,0,0,1,1.2-.12,26.72,26.72,0,0,1,3.29,0,35.21,35.21,0,0,1,4.84.63,41.23,41.23,0,0,1,5.76,1.66A40.71,40.71,0,0,1,368,232.1a36,36,0,0,1,4.06,2.72,25.65,25.65,0,0,1,2.5,2.15A4.87,4.87,0,0,1,375.4,237.85Z" style="fill:#fff"></path><path d="M368.41,202.21c0,.09-1.36.06-3.53.29a35,35,0,0,0-8.27,1.91,35.36,35.36,0,0,0-7.55,3.89c-1.8,1.23-2.82,2.13-2.88,2.06s.21-.27.65-.7a23.79,23.79,0,0,1,2-1.66,30.38,30.38,0,0,1,16-5.87,21.35,21.35,0,0,1,2.61,0A2.84,2.84,0,0,1,368.41,202.21Z" style="fill:#fff"></path><path d="M366.32,281.38a3.08,3.08,0,0,1,.38.6l1,1.78c.4.78.86,1.76,1.4,2.89s1.08,2.46,1.72,3.9c2.44,5.82,5.41,14,8.45,23.16s5.56,17.48,7.33,23.53c.89,3,1.58,5.48,2,7.18.22.82.39,1.47.52,2a5.8,5.8,0,0,1,.15.69,3.32,3.32,0,0,1-.25-.66c-.16-.49-.36-1.14-.61-1.94l-2.21-7.13c-1.86-6-4.46-14.34-7.48-23.48s-5.94-17.33-8.29-23.18c-.61-1.45-1.14-2.78-1.64-3.92s-.95-2.1-1.33-2.92l-.9-1.82A3.44,3.44,0,0,1,366.32,281.38Z" style="fill:#263238"></path><path d="M282.26,347.08s.11.13.28.4l.73,1.17,2.66,4.34c2.26,3.65,5.5,8.62,9.14,14.07s6.92,10.4,9.22,14c1.15,1.82,2.06,3.3,2.67,4.33q.41.72.69,1.2c.16.28.23.43.21.44a2.26,2.26,0,0,1-.3-.38l-.77-1.15L304,381.3c-2.43-3.63-5.72-8.53-9.34-13.95s-6.84-10.46-9-14.17c-1.1-1.85-2-3.36-2.52-4.43l-.65-1.22C282.31,347.24,282.24,347.09,282.26,347.08Z" style="fill:#263238"></path><path d="M305.11,387.93c0,.15-6.1-.16-13.61-.68s-13.57-1.05-13.56-1.19,6.1.16,13.6.68S305.12,387.79,305.11,387.93Z" style="fill:#fff"></path><g style="opacity:0.30000000000000004"><path d="M360.59,371.5v.19L348,385.86a47.26,47.26,0,0,0,30.3-39.6A118.44,118.44,0,0,1,360.59,371.5Z"></path></g><g style="opacity:0.30000000000000004"><path d="M345.68,431.29c-11.06-2.13-22.89-11.31-30.47-19.64,6.09,10.87,16.63,20.59,28.62,24A48.21,48.21,0,0,0,380,431.34C368.73,432.63,356.74,433.43,345.68,431.29Z"></path></g><path d="M368.14,217.16c0,.08-.91,0-2.35.09a17.45,17.45,0,0,0-5.43,1.28,17.26,17.26,0,0,0-4.71,3c-1.08,1-1.64,1.67-1.71,1.61a6.47,6.47,0,0,1,1.45-1.87,15,15,0,0,1,4.77-3.2,15.12,15.12,0,0,1,5.62-1.17A6.35,6.35,0,0,1,368.14,217.16Z" style="fill:#263238"></path></g><g id="freepik--Stars--inject-341"><path d="M121.58,105l.35.59a4,4,0,0,0,1.66,1.53l.61.3-.58.35a4,4,0,0,0-1.53,1.67l-.31.61-.35-.59a4,4,0,0,0-1.66-1.53l-.61-.3.58-.35a4,4,0,0,0,1.53-1.66Z" style="fill:#263238"></path><path d="M467.44,96.57l.36.59a4,4,0,0,0,1.66,1.53l.61.3-.59.36A4,4,0,0,0,468,101l-.31.61-.35-.59a4,4,0,0,0-1.66-1.53l-.61-.3.58-.35a4,4,0,0,0,1.53-1.66Z" style="fill:#263238"></path><path d="M238.79,142.46l.45.75a5.07,5.07,0,0,0,2.12,2l.79.39-.75.45a5.23,5.23,0,0,0-2,2.13l-.39.78-.45-.75a5.17,5.17,0,0,0-2.13-2l-.78-.38.75-.46a5.14,5.14,0,0,0,2-2.12Z" style="fill:#263238"></path><path d="M190.65,38.18l.45.75a5.17,5.17,0,0,0,2.13,2l.78.39-.75.45a5.14,5.14,0,0,0-2,2.12l-.39.79-.45-.75a5.14,5.14,0,0,0-2.12-2l-.79-.39.75-.45a5.23,5.23,0,0,0,2-2.13Z" style="fill:#263238"></path><path d="M381.24,29l.45.75a5.23,5.23,0,0,0,2.13,2l.79.39-.75.45a5.1,5.1,0,0,0-2,2.13l-.39.78-.45-.75a5.23,5.23,0,0,0-2.13-2l-.78-.38.75-.46a5.05,5.05,0,0,0,2-2.12Z" style="fill:#263238"></path><path d="M330.77,107.57l.35,3.44a3.44,3.44,0,0,0,1,2.19l0,0a3.43,3.43,0,0,0,2.14.84l2.72.14-2.79.5a3.49,3.49,0,0,0-1.92,1,1.29,1.29,0,0,0-.16.17,3.47,3.47,0,0,0-.83,2l-.31,3.43-.34-3.24a3.42,3.42,0,0,0-1-2.17l-.11-.1a3.44,3.44,0,0,0-1.95-.82l-2.88-.3,2.69-.33a3.41,3.41,0,0,0,2.11-1l.1-.11a3.5,3.5,0,0,0,.83-2Z" style="fill:#263238"></path><path d="M68.75,42.47l.34,3.44a3.44,3.44,0,0,0,1,2.19l0,0a3.46,3.46,0,0,0,2.15.84l2.72.13-2.8.5a3.53,3.53,0,0,0-1.92,1l-.16.18a3.51,3.51,0,0,0-.83,2L69,56.22,68.67,53a3.41,3.41,0,0,0-1-2.17.52.52,0,0,1-.11-.1,3.62,3.62,0,0,0-2-.82l-2.87-.3,2.69-.33a3.38,3.38,0,0,0,2.11-1l.1-.1a3.57,3.57,0,0,0,.83-2Z" style="fill:#263238"></path><path d="M244.52,210.41l.45.75a5.17,5.17,0,0,0,2.13,2l.78.38-.75.46a5.14,5.14,0,0,0-2,2.12l-.39.79-.45-.75a5,5,0,0,0-2.12-2l-.79-.39.75-.45a5.23,5.23,0,0,0,2-2.13Z" style="fill:#263238"></path><path d="M402.11,160.22l.45.75a5.14,5.14,0,0,0,2.12,2l.79.38-.75.46a5.14,5.14,0,0,0-2,2.12l-.39.79-.45-.75a5.17,5.17,0,0,0-2.13-2l-.78-.39.75-.45a5.23,5.23,0,0,0,2-2.13Z" style="fill:#263238"></path></g></svg>